<?xml version="1.0" encoding="UTF-8"?>
<svg version="1.1" xmlns="http://www.w3.org/2000/svg" width="192" height="192">
<path d="M0 0 C63.36 0 126.72 0 192 0 C192 63.36 192 126.72 192 192 C128.64 192 65.28 192 0 192 C0 128.64 0 65.28 0 0 Z " fill="#FBFBFD" transform="translate(0,0)"/>
<path d="M0 0 C3.875 0.875 3.875 0.875 5 2 C5.1087069 3.84725173 5.14688602 5.69867467 5.15821838 7.54908752 C5.1680072 8.75368622 5.17779602 9.95828491 5.18788147 11.1993866 C5.19378641 12.54641684 5.19959681 13.8934475 5.20532227 15.24047852 C5.21489551 16.64947806 5.22490526 18.05847469 5.23532104 19.46746826 C5.26243623 23.30404502 5.28340985 27.14063416 5.30332303 30.97725415 C5.32514194 34.98249414 5.3525506 38.98769567 5.37937927 42.99290466 C5.42936171 50.58249215 5.47427987 58.17210091 5.51740164 65.76173013 C5.56672668 74.40006655 5.6216623 83.03836439 5.67708123 91.67666352 C5.79098645 109.45107322 5.8978068 127.2255193 6 145 C6.08040527 144.35562988 6.16081055 143.71125977 6.24365234 143.04736328 C6.6170094 140.0727568 6.99597489 137.09888936 7.375 134.125 C7.50132813 133.11179688 7.62765625 132.09859375 7.7578125 131.0546875 C8.48893181 125.3519569 9.37560438 119.73273502 10.56813049 114.10760498 C11.38294988 110.13113208 11.82936942 106.10244692 12.33984375 102.078125 C13.32232662 96.00882251 14.71175039 90.01183152 16 84 C37.78 84 59.56 84 82 84 C82 85.98 82 87.96 82 90 C81 91 81 91 78.48802185 91.12025452 C77.37105423 91.11803391 76.25408661 91.11581329 75.10327148 91.11352539 C73.84203964 91.11344986 72.5808078 91.11337433 71.28135681 91.11329651 C69.89460206 91.1081891 68.50784771 91.10297309 67.12109375 91.09765625 C65.71004791 91.09579201 64.29900143 91.09436814 62.88795471 91.09336853 C59.16759465 91.08954379 55.4472734 91.0797139 51.72692871 91.06866455 C47.93319219 91.05844948 44.13944942 91.05387071 40.34570312 91.04882812 C32.89711769 91.03809158 25.44856428 91.0210157 18 91 C16.83473357 98.50601977 15.69552585 106.01394846 14.6328125 113.53515625 C14.38441474 115.27022529 14.13570675 117.00524994 13.88671875 118.74023438 C13.50680292 121.38918657 13.1284064 124.03830193 12.75537109 126.68823242 C10.94026821 139.56103823 8.67503259 152.2778045 6 165 C4.68 165 3.36 165 2 165 C0.28374661 163.28374661 0.85676738 161.02289672 0.84178162 158.67869568 C0.8319928 157.52458191 0.82220398 156.37046814 0.81211853 155.18138123 C0.80636307 153.90392532 0.8006076 152.62646942 0.79467773 151.31030273 C0.78510436 149.96041561 0.77509461 148.61053152 0.76467896 147.26065063 C0.73756517 143.58522657 0.71659079 139.90978958 0.69667697 136.2343204 C0.6748572 132.39724271 0.64744896 128.56020515 0.62062073 124.72315979 C0.57063946 117.45231693 0.52572087 110.18145186 0.48259836 102.91056544 C0.43327233 94.63497798 0.37833707 86.35943077 0.32291877 78.08388221 C0.20901534 61.05595866 0.1021946 44.02799777 0 27 C-0.64459531 30.8228914 -1.28628786 34.64626474 -1.92749023 38.46972656 C-2.10855064 39.54332428 -2.28961105 40.616922 -2.47615814 41.72305298 C-4.07533721 51.27370258 -5.34861269 60.83938717 -6.50976562 70.453125 C-6.66251953 71.6596875 -6.81527344 72.86625 -6.97265625 74.109375 C-7.09906494 75.15061523 -7.22547363 76.19185547 -7.35571289 77.26464844 C-8.27084297 82.57025291 -9.69420067 87.7768027 -11 93 C-36.08 93 -61.16 93 -87 93 C-87 90.69 -87 88.38 -87 86 C-62.58 86 -38.16 86 -13 86 C-13 82.7 -13 79.4 -13 76 C-12.4140625 73.07421875 -12.4140625 73.07421875 -11.625 70.6875 C-7.77519181 58.04064001 -6.94303003 44.3167645 -5.25268555 31.22558594 C-3.89225835 20.71582951 -2.23380354 10.36276777 0 0 Z " fill="#8D77E7" transform="translate(97,13)"/>
<path d="M0 0 C3.54150893 -0.08761663 7.08273633 -0.14059739 10.625 -0.1875 C11.62402344 -0.21263672 12.62304688 -0.23777344 13.65234375 -0.26367188 C19.17178806 -0.31850079 23.28674361 -0.24348437 28 3 C31.31501147 8.68424156 30.77954912 16.17533712 29.5 22.453125 C28.5007791 25.51891639 27.43771778 27.63855123 24.9375 29.703125 C20.93149437 31.47173387 17.50476883 31.32753963 13.1875 31.1875 C10.485625 31.125625 7.78375 31.06375 5 31 C5 37.27 5 43.54 5 50 C3.02 50.495 3.02 50.495 1 51 C0 50 0 50 -0.12025452 47.98155212 C-0.11803391 47.09552811 -0.11581329 46.20950409 -0.11352539 45.29663086 C-0.11344986 44.29566879 -0.11337433 43.29470673 -0.11329651 42.26341248 C-0.10813522 41.1748848 -0.10297394 40.08635712 -0.09765625 38.96484375 C-0.0962413 37.85645645 -0.09482635 36.74806915 -0.09336853 35.60609436 C-0.08775033 32.04986931 -0.07519475 28.49370617 -0.0625 24.9375 C-0.05748734 22.53320403 -0.05292403 20.12890708 -0.04882812 17.72460938 C-0.03777499 11.81638496 -0.02101917 5.9081969 0 0 Z " fill="#3A8CC1" transform="translate(14,35)"/>
<path d="M0 0 C0.33 0 0.66 0 1 0 C0.97679688 0.69867187 0.95359375 1.39734375 0.9296875 2.1171875 C0.91164063 3.02726562 0.89359375 3.93734375 0.875 4.875 C0.85179688 5.77992187 0.82859375 6.68484375 0.8046875 7.6171875 C0.75675164 10.18806994 0.75675164 10.18806994 3 12 C3.24609566 14.55746651 3.24609566 14.55746651 3.24050903 17.85916138 C3.24325836 19.10720551 3.24600769 20.35524963 3.24884033 21.64111328 C3.24176158 23.03173923 3.23449195 24.42236422 3.22705078 25.81298828 C3.22648688 27.27139274 3.22680281 28.72979777 3.22793579 30.1882019 C3.22851115 34.15494853 3.21672734 38.12157494 3.20278788 42.08829355 C3.19031093 46.23096519 3.18911242 50.37363938 3.18673706 54.5163269 C3.18051334 62.36446532 3.1640905 70.21254822 3.14403808 78.06066215 C3.12170678 86.99402532 3.11069263 95.92739111 3.10064721 104.86077523 C3.07972502 123.24054833 3.04453177 141.62026971 3 160 C2.67 160 2.34 160 2 160 C1.67 114.79 1.34 69.58 1 23 C-1.41844082 37.5106449 -3.74927982 51.87722509 -5.50976562 66.453125 C-5.66251953 67.6596875 -5.81527344 68.86625 -5.97265625 70.109375 C-6.09906494 71.15061523 -6.22547363 72.19185547 -6.35571289 73.26464844 C-7.27084297 78.57025291 -8.69420067 83.7768027 -10 89 C-35.08 89 -60.16 89 -86 89 C-86 86.69 -86 84.38 -86 82 C-61.58 82 -37.16 82 -12 82 C-12 78.7 -12 75.4 -12 72 C-11.4140625 69.07421875 -11.4140625 69.07421875 -10.625 66.6875 C-6.74613483 53.9443426 -5.91362797 40.11087353 -4.17724609 26.92382812 C-2.98788597 17.90707062 -1.77269277 8.92535954 0 0 Z " fill="#9786E9" transform="translate(96,17)"/>
<path d="M0 0 C1.29808594 -0.02835938 2.59617188 -0.05671875 3.93359375 -0.0859375 C8.12405571 0.44632785 9.74833534 1.25402792 12.5625 4.375 C13.26953125 6.953125 13.26953125 6.953125 13.375 9.625 C13.42269531 10.51703125 13.47039062 11.4090625 13.51953125 12.328125 C13.53371094 13.00359375 13.54789063 13.6790625 13.5625 14.375 C11.9125 14.705 10.2625 15.035 8.5625 15.375 C8.43875 14.240625 8.315 13.10625 8.1875 11.9375 C7.98125 10.761875 7.775 9.58625 7.5625 8.375 C4.49716836 6.84233418 1.29495728 7.27223529 -2.0625 7.3125 C-3.12210938 7.31926758 -3.12210938 7.31926758 -4.203125 7.32617188 C-5.94795275 7.33796125 -7.692737 7.35589676 -9.4375 7.375 C-9.46444851 9.33325873 -9.48387218 11.29162226 -9.5 13.25 C-9.51160156 14.34054688 -9.52320312 15.43109375 -9.53515625 16.5546875 C-9.63494303 19.32677546 -9.63494303 19.32677546 -8.4375 21.375 C-5.11950999 21.67422513 -1.84421285 21.7906556 1.484375 21.85351562 C5.99269165 22.02340623 8.97107576 22.58547774 12.5625 25.375 C14.11161821 28.47323641 13.78814397 31.72733391 13.8125 35.125 C13.833125 35.82882813 13.85375 36.53265625 13.875 37.2578125 C13.91041884 42.02164585 13.20097695 45.25700326 10.5625 49.375 C5.3285095 52.864327 -1.33110748 51.79457242 -7.4375 51.375 C-10.42239217 50.73803703 -11.85931823 50.09378785 -14.4375 48.375 C-15.50162096 45.45338979 -15.54539517 42.71187138 -15.5 39.625 C-15.49097656 38.82578125 -15.48195313 38.0265625 -15.47265625 37.203125 C-15.46105469 36.59984375 -15.44945313 35.9965625 -15.4375 35.375 C-13.7875 35.375 -12.1375 35.375 -10.4375 35.375 C-9.7775 38.675 -9.1175 41.975 -8.4375 45.375 C-5.97851345 45.45576963 -3.52216258 45.51537143 -1.0625 45.5625 C-0.36382812 45.58763672 0.33484375 45.61277344 1.0546875 45.63867188 C3.32997677 45.70478561 3.32997677 45.70478561 6.5625 45.375 C8.98380331 41.74304504 8.77272785 39.99150652 8.6875 35.6875 C8.66042969 33.91826172 8.66042969 33.91826172 8.6328125 32.11328125 C8.60960937 31.20964844 8.58640625 30.30601563 8.5625 29.375 C6.80873047 29.42720703 6.80873047 29.42720703 5.01953125 29.48046875 C3.47136859 29.50861716 1.92319032 29.53591619 0.375 29.5625 C-0.39392578 29.58763672 -1.16285156 29.61277344 -1.95507812 29.63867188 C-6.59397198 29.69840012 -9.71555342 29.47541764 -13.4375 26.375 C-14.65700118 22.71649645 -14.66003359 19.31096431 -14.6875 15.5 C-14.708125 14.79230469 -14.72875 14.08460937 -14.75 13.35546875 C-14.78368978 8.83261619 -14.32860738 5.90423469 -11.4375 2.375 C-7.96465406 -0.22372826 -4.218177 0.04180552 0 0 Z " fill="#37C7B2" transform="translate(130.4375,33.625)"/>
<path d="M0 0 C8.25 0 16.5 0 25 0 C25 1.65 25 3.3 25 5 C18.4 5 11.8 5 5 5 C5 10.61 5 16.22 5 22 C11.27 22 17.54 22 24 22 C24 23.65 24 25.3 24 27 C17.73 27 11.46 27 5 27 C5 32.94 5 38.88 5 45 C11.6 45 18.2 45 25 45 C25 46.65 25 48.3 25 50 C16.75 50 8.5 50 0 50 C0 33.5 0 17 0 0 Z " fill="#3F97C5" transform="translate(152,35)"/>
<path d="M0 0 C1.32 0 2.64 0 4 0 C4.0994991 5.53176738 4.17176423 11.06300426 4.21972656 16.59545898 C4.2397382 18.47413213 4.26695637 20.3527438 4.30175781 22.23120117 C4.3507397 24.94465373 4.37307329 27.65727696 4.390625 30.37109375 C4.41127014 31.19959335 4.43191528 32.02809296 4.45318604 32.88169861 C4.45546231 38.91023121 3.13971536 43.8079549 0 49 C-3.97728801 51.78269621 -8.91278509 51.29824793 -13.625 51.25 C-14.7696875 51.26160156 -14.7696875 51.26160156 -15.9375 51.2734375 C-19.80781054 51.25985746 -21.71059323 51.19293785 -25 49 C-27.41949438 43.8242723 -27.26027829 38.81355729 -27.1953125 33.2265625 C-27.1924826 32.3028183 -27.18965271 31.3790741 -27.18673706 30.42733765 C-27.17559179 27.49309024 -27.15049765 24.5591543 -27.125 21.625 C-27.11496289 19.62891068 -27.10583832 17.63281654 -27.09765625 15.63671875 C-27.07567097 10.75769351 -27.04118017 5.87889946 -27 1 C-25.68 1 -24.36 1 -23 1 C-22.98018066 2.08941895 -22.96036133 3.17883789 -22.93994141 4.30126953 C-22.86360942 8.36057833 -22.77493539 12.41954153 -22.68261719 16.47851562 C-22.64444112 18.23202671 -22.60956876 19.98561308 -22.578125 21.73925781 C-22.53222641 24.26654886 -22.4742743 26.79332678 -22.4140625 29.3203125 C-22.40251129 30.09867462 -22.39096008 30.87703674 -22.37905884 31.6789856 C-22.29475618 38.88592113 -22.29475618 38.88592113 -19 45 C-16.71406683 45.20462317 -14.41926263 45.31400733 -12.125 45.375 C-10.24167969 45.44847656 -10.24167969 45.44847656 -8.3203125 45.5234375 C-4.93694907 45.35943394 -4.93694907 45.35943394 -3.32226562 43.02880859 C-1.5427058 38.95251259 -1.54081586 35.41853739 -1.5234375 31.015625 C-1.50785797 30.15942566 -1.49227844 29.30322632 -1.47622681 28.42108154 C-1.42884026 25.69739629 -1.4009746 22.97396642 -1.375 20.25 C-1.33853717 17.51192944 -1.29799145 14.77400463 -1.25234985 12.03607178 C-1.2250692 10.33453919 -1.20374149 8.63289916 -1.18881226 6.93121338 C-1.11069113 1.11069113 -1.11069113 1.11069113 0 0 Z " fill="#5776B2" transform="translate(77,34)"/>
<path d="M0 0 C0.33 0 0.66 0 1 0 C1.33 46.86 1.66 93.72 2 142 C2.99 142.33 3.98 142.66 5 143 C8.35342048 126.82378968 11.04063926 110.64303562 13.21166992 94.2722168 C13.30891861 93.55521606 13.4061673 92.83821533 13.50636292 92.0994873 C13.76911557 90.15902909 14.02474376 88.21760983 14.27978516 86.27612305 C15.25816046 80.46722698 16.67541733 74.73985823 18 69 C39.12 68.67 60.24 68.34 82 68 C82 68.66 82 69.32 82 70 C79.20638757 70.93120414 77.42958261 71.14367756 74.53540039 71.18945312 C73.63338394 71.20617065 72.73136749 71.22288818 71.80201721 71.2401123 C70.82707809 71.25368774 69.85213898 71.26726318 68.84765625 71.28125 C67.83714706 71.29965942 66.82663788 71.31806885 65.7855072 71.33703613 C62.54456441 71.3958129 59.30356649 71.44852778 56.0625 71.5 C38.00102118 71.66991529 38.00102118 71.66991529 20 73 C19.81824219 74.23234375 19.63648437 75.4646875 19.44921875 76.734375 C17.18121021 91.77268817 17.18121021 91.77268817 15.4375 98.0625 C13.873088 103.8475652 13.2942749 109.62449826 12.69897461 115.56958008 C12.24356325 120.04628794 11.61086479 124.33078151 10.5078125 128.69921875 C9.32356161 134.06478622 8.72780911 139.55691699 8 145 C7.34 145 6.68 145 6 145 C5.67 145.99 5.34 146.98 5 148 C4.01 148 3.02 148 2 148 C-0.18865403 144.71701896 -0.25535855 143.7417324 -0.2784729 139.93171692 C-0.29521812 138.36049828 -0.29521812 138.36049828 -0.31230164 136.75753784 C-0.31446182 135.60883209 -0.31662201 134.46012634 -0.31884766 133.27661133 C-0.32889328 132.0667305 -0.3389389 130.85684967 -0.34928894 129.61030579 C-0.37490505 126.29236997 -0.3917454 122.97460563 -0.40471697 119.65661073 C-0.42033685 116.18921161 -0.44713069 112.72189945 -0.4727478 109.25456238 C-0.5195559 102.68857462 -0.55629013 96.12257055 -0.58942068 89.55650109 C-0.62762776 82.08130847 -0.67704159 74.60620315 -0.72740483 67.13108408 C-0.83075487 51.75411811 -0.9196077 36.37710409 -1 21 C-1.99 26.28 -2.98 31.56 -4 37 C-4.33 37 -4.66 37 -5 37 C-5.40012496 29.15755071 -3.89442169 21.69084391 -2.5 14 C-2.25848897 12.63943382 -2.01759829 11.27875737 -1.77734375 9.91796875 C-1.1909744 6.61084564 -0.59835768 3.30497136 0 0 Z " fill="#D7E1F0" transform="translate(97,35)"/>
<path d="M0 0 C0.33 0.66 0.66 1.32 1 2 C2.12019531 1.98839844 3.24039063 1.97679688 4.39453125 1.96484375 C5.86718583 1.95546378 7.33984222 1.9463638 8.8125 1.9375 C9.91948242 1.92493164 9.91948242 1.92493164 11.04882812 1.91210938 C14.29922068 1.89740172 16.89404895 1.96468298 20 3 C20.33 4.65 20.66 6.3 21 8 C20.3296875 7.51273438 19.659375 7.02546875 18.96875 6.5234375 C15.27298935 4.62692875 12.63807423 4.60017155 8.5 4.625 C6.56640625 4.61339844 6.56640625 4.61339844 4.59375 4.6015625 C0.84642411 5.01702689 -1.0680686 5.66977094 -4 8 C-5.22716023 11.6814807 -5.18406814 15.10410762 -5.1875 18.9375 C-5.19974609 19.65357422 -5.21199219 20.36964844 -5.22460938 21.10742188 C-5.27077078 26.39245482 -5.27077078 26.39245482 -3 31 C-0.40742331 31.86419223 1.34037707 32.17580932 4.01171875 32.31640625 C5.14770508 32.37924805 5.14770508 32.37924805 6.30664062 32.44335938 C7.09232422 32.48267578 7.87800781 32.52199219 8.6875 32.5625 C9.88342773 32.62727539 9.88342773 32.62727539 11.10351562 32.69335938 C13.06881447 32.79927368 15.03438496 32.90012551 17 33 C18.28282363 35.56564725 18.20391953 37.51033069 18.25 40.375 C18.27578125 41.33148438 18.3015625 42.28796875 18.328125 43.2734375 C17.9323395 46.56222655 17.54116367 47.8478415 15 50 C12.28770497 50.29642569 10.00260268 50.38061189 7.3125 50.25 C6.61060547 50.23195312 5.90871094 50.21390625 5.18554688 50.1953125 C3.45644564 50.14826213 1.72804795 50.07651873 0 50 C-2.12999997 46.20960634 -2.16702456 43.34263862 -2 39 C-3.65 39 -5.3 39 -7 39 C-7 41.64 -7 44.28 -7 47 C-7.33 47 -7.66 47 -8 47 C-8.19871541 45.48059141 -8.38332696 43.95933682 -8.5625 42.4375 C-8.66691406 41.59058594 -8.77132812 40.74367187 -8.87890625 39.87109375 C-9 37 -9 37 -8.5234375 33.95703125 C-7.63882407 27.26961778 -8.000834 20.54259057 -8.12695312 13.80859375 C-8.13791016 12.72191406 -8.14886719 11.63523437 -8.16015625 10.515625 C-8.17699463 9.52852539 -8.19383301 8.54142578 -8.21118164 7.52441406 C-8 5 -8 5 -6 2 C-2.875 1.8125 -2.875 1.8125 0 2 C0 1.34 0 0.68 0 0 Z " fill="#DDDFEF" transform="translate(122,30)"/>
<path d="M0 0 C0.33 1.32 0.66 2.64 1 4 C1.99 4 2.98 4 4 4 C4.33 4.99 4.66 5.98 5 7 C5.99 6.67 6.98 6.34 8 6 C8 5.34 8 4.68 8 4 C10.475 4.495 10.475 4.495 13 5 C12.67 5.66 12.34 6.32 12 7 C11.01 6.67 10.02 6.34 9 6 C9.20376178 7.90584196 9.20376178 7.90584196 10 10 C11.0209375 10.7115625 11.0209375 10.7115625 12.0625 11.4375 C14 13 14 13 14.375 15.5625 C14 18 14 18 12 20 C9.66666667 20 7.33333333 20 5 20 C3.783125 20.37125 2.56625 20.7425 1.3125 21.125 C-2 22 -2 22 -6 20 C-6 15.71 -6 11.42 -6 7 C-6.99 7.33 -7.98 7.66 -9 8 C-9.33 11.96 -9.66 15.92 -10 20 C-13.3 20.66 -16.6 21.32 -20 22 C-20.82011975 18.719521 -21.16221637 16.31721288 -21.1875 13 C-21.20167969 12.154375 -21.21585938 11.30875 -21.23046875 10.4375 C-20.98543096 7.84591384 -20.30584901 6.22975008 -19 4 C-17.35 4.33 -15.7 4.66 -14 5 C-13.67 5.99 -13.34 6.98 -13 8 C-12.67 6.68 -12.34 5.36 -12 4 C-9.69 4 -7.38 4 -5 4 C-4.67 4.66 -4.34 5.32 -4 6 C-3.67 5.34 -3.34 4.68 -3 4 C-2.01 4 -1.02 4 0 4 C0 2.68 0 1.36 0 0 Z " fill="#EFEBF4" transform="translate(160,111)"/>
<path d="M0 0 C2.743125 -0.103125 5.48625 -0.20625 8.3125 -0.3125 C9.17270752 -0.35802002 10.03291504 -0.40354004 10.91918945 -0.45043945 C13.03451937 -0.4891269 14.92741729 -0.43683962 17 0 C19.5787974 2.69781882 19.94576353 4.42364715 20.29296875 8.11328125 C20.25816406 9.16902344 20.22335938 10.22476563 20.1875 11.3125 C20.16042969 12.38113281 20.13335937 13.44976562 20.10546875 14.55078125 C20.07066406 15.35902344 20.03585938 16.16726562 20 17 C19.34 17 18.68 17 18 17 C17.67 17.99 17.34 18.98 17 20 C13.93618406 21.53190797 10.73034134 21.10243613 7.375 21.0625 C4.94125 21.041875 2.5075 21.02125 0 21 C0 14.07 0 7.14 0 0 Z " fill="#DFE0F0" transform="translate(19,40)"/>
<path d="M0 0 C5.875 1.875 5.875 1.875 7 3 C7.08861992 5.8116338 7.11522355 8.59858255 7.09765625 11.41015625 C7.0962413 12.25219101 7.09482635 13.09422577 7.09336853 13.96177673 C7.08775263 16.66205335 7.07519748 19.36224828 7.0625 22.0625 C7.05748705 23.88867068 7.05292379 25.71484266 7.04882812 27.54101562 C7.03777804 32.02737542 7.02050279 36.51367384 7 41 C6.67 41 6.34 41 6 41 C6 28.79 6 16.58 6 4 C4.68 4 3.36 4 2 4 C2 16.54 2 29.08 2 42 C-0.35373401 38.46939899 -0.65778415 35.41404244 -1.125 31.3125 C-1.21136719 30.61060547 -1.29773437 29.90871094 -1.38671875 29.18554688 C-1.59826875 27.45788855 -1.800086 25.7290434 -2 24 C-2.99 25.98 -3.98 27.96 -5 30 C-6.28258256 27.43483487 -5.69408916 26.73357033 -5 24 C-4.90751982 22.02255614 -4.87000732 20.04209892 -4.875 18.0625 C-4.87242188 17.04285156 -4.86984375 16.02320312 -4.8671875 14.97265625 C-4.99088064 12.20411275 -5.37473262 9.69460465 -6 7 C-14.42909177 3.88716485 -14.42909177 3.88716485 -34 4 C-34 20.5 -34 37 -34 54 C-34.33 54 -34.66 54 -35 54 C-35 37.17 -35 20.34 -35 3 C-30.2976866 0.6488433 -27.19360965 0.66689313 -22.0625 0.6875 C-21.26392578 0.67138672 -20.46535156 0.65527344 -19.64257812 0.63867188 C-14.87574339 0.63472255 -11.9547081 1.06686033 -8 4 C-7.67 4 -7.34 4 -7 4 C-7 3.01 -7 2.02 -7 1 C-6.1028125 1.495 -6.1028125 1.495 -5.1875 2 C-2.94613529 3.20787988 -2.94613529 3.20787988 0 3 C0 2.01 0 1.02 0 0 Z " fill="#CCDBE7" transform="translate(48,31)"/>
<path d="M0 0 C1.051875 -0.01417969 2.10375 -0.02835938 3.1875 -0.04296875 C6 0.1875 6 0.1875 9 2.1875 C9.1875 5.8125 9.1875 5.8125 9 9.1875 C10.32 8.8575 11.64 8.5275 13 8.1875 C13.33 6.2075 13.66 4.2275 14 2.1875 C14.33 2.8475 14.66 3.5075 15 4.1875 C15.66 4.1875 16.32 4.1875 17 4.1875 C17.66 6.4975 18.32 8.8075 19 11.1875 C18.01 11.1875 17.02 11.1875 16 11.1875 C14.66018514 11.4937434 13.32488113 11.82201555 12 12.1875 C12.33 13.8375 12.66 15.4875 13 17.1875 C12.34 17.5175 11.68 17.8475 11 18.1875 C10.01 17.8575 9.02 17.5275 8 17.1875 C4.57152347 16.99323166 1.14950944 16.8423472 -2.28320312 16.7578125 C-4.41015625 16.6640625 -4.41015625 16.6640625 -8 16.1875 C-10.18085057 12.91622414 -10.24887859 11.91373277 -10.1875 8.125 C-10.18105469 7.24714844 -10.17460938 6.36929688 -10.16796875 5.46484375 C-10 3.1875 -10 3.1875 -9 1.1875 C-5.79226388 0.11825463 -3.37015182 0.02065044 0 0 Z " fill="#E4E1F2" transform="translate(130,39.8125)"/>
<path d="M0 0 C2.12999997 3.79039366 2.16702456 6.65736138 2 11 C1.67 11 1.34 11 1 11 C1 9.02 1 7.04 1 5 C-20.78 5 -42.56 5 -65 5 C-65.66 9.62 -66.32 14.24 -67 19 C-67.66 20.32 -68.32 21.64 -69 23 C-69.28307925 15.75002578 -68.50974035 9.09038772 -67 2 C-63.47202904 0.82400968 -60.53932995 0.78743304 -56.81640625 0.68359375 C-56.09652023 0.66276733 -55.37663422 0.64194092 -54.63493347 0.6204834 C-52.27756413 0.55429128 -49.92008406 0.49550311 -47.5625 0.4375 C-46.76275757 0.41632111 -45.96301514 0.39514221 -45.13903809 0.37332153 C-30.09059244 -0.02424493 -15.05362041 -0.11950236 0 0 Z " fill="#DCE8F2" transform="translate(178,92)"/>
<path d="M0 0 C0.33 0 0.66 0 1 0 C1.20356319 11.08288465 1.2063715 22.31209498 -2 33 C-3.32 33.33 -4.64 33.66 -6 34 C-6 34.99 -6 35.98 -6 37 C-30.75 36.67 -55.5 36.34 -81 36 C-81 35.01 -81 34.02 -81 33 C-55.92 33 -30.84 33 -5 33 C-3.70884647 25.25307885 -2.46494782 17.52421967 -1.375 9.75 C-1.2409375 8.80253906 -1.106875 7.85507813 -0.96875 6.87890625 C-0.64451756 4.58611971 -0.32160897 2.29315573 0 0 Z " fill="#E0F0F4" transform="translate(91,73)"/>
<path d="M0 0 C22 0 22 0 28 3 C30.21267422 6.71097076 30.21849754 10.05836205 30.125 14.3125 C30.10695313 15.38113281 30.08890625 16.44976562 30.0703125 17.55078125 C30.04710938 18.35902344 30.02390625 19.16726562 30 20 C29.67 20 29.34 20 29 20 C28.67 15.38 28.34 10.76 28 6 C26.35 6.33 24.7 6.66 23 7 C22.67 6.67 22.34 6.34 22 6 C19.13944586 5.76284045 16.30272344 5.57809383 13.4375 5.4375 C10.653125 5.293125 7.86875 5.14875 5 5 C5 11.6 5 18.2 5 25 C4.67 25 4.34 25 4 25 C4 23.35 4 21.7 4 20 C3.34 20 2.68 20 2 20 C1.67 29.9 1.34 39.8 1 50 C0.67 50 0.34 50 0 50 C0 33.5 0 17 0 0 Z " fill="#37CCB1" transform="translate(14,35)"/>
<path d="M0 0 C4.75 0.75 4.75 0.75 7 3 C7.26171303 5.10456276 7.26171303 5.10456276 7.2784729 7.75820923 C7.28963638 8.76224289 7.30079987 9.76627655 7.31230164 10.80073547 C7.31446182 11.90628281 7.31662201 13.01183014 7.31884766 14.15087891 C7.32889328 15.31184586 7.3389389 16.47281281 7.34928894 17.66896057 C7.38027715 21.52148932 7.39719954 25.37394811 7.4140625 29.2265625 C7.43276159 31.89172399 7.45223647 34.55686842 7.4727478 37.22201538 C7.51958203 43.52949845 7.55630356 49.83699852 7.58942068 56.14456689 C7.62760935 63.32470198 7.67702797 70.5047459 7.72740483 77.6848042 C7.83079368 92.45646569 7.9200314 107.22819272 8 122 C9.59682604 118.80634791 9.39482017 115.35312371 9.62109375 111.82421875 C10.00906719 108.93241674 10.80721714 106.65116515 12 104 C12.33 104 12.66 104 13 104 C13.26915051 111.31690656 12.49530809 118.07159154 11.125 125.25 C10.7561817 127.26662951 10.38899111 129.2835574 10.0234375 131.30078125 C9.75805176 132.75605225 9.75805176 132.75605225 9.48730469 134.24072266 C8.50464517 139.80485987 7.7377981 145.39855917 7 151 C6.67 151 6.34 151 6 151 C5.67 102.49 5.34 53.98 5 4 C3.68 3.34 2.36 2.68 1 2 C0.67 3.32 0.34 4.64 0 6 C0 4.02 0 2.04 0 0 Z " fill="#DDEAF3" transform="translate(96,11)"/>
<path d="M0 0 C0.33 0 0.66 0 1 0 C1.30370235 6.17528122 0.65931532 11.05167879 -1.24609375 16.93359375 C-2.29528758 21.20104017 -2.56272778 25.62727778 -3 30 C-26.76 30 -50.52 30 -75 30 C-71.43752399 27.62501599 -69.74582922 27.70064092 -65.5090332 27.58935547 C-64.8551059 27.56955627 -64.20117859 27.54975708 -63.5274353 27.52935791 C-61.36869727 27.46624755 -59.20987124 27.41666288 -57.05078125 27.3671875 C-55.5528893 27.3260379 -54.0550203 27.28404466 -52.55717468 27.24124146 C-48.61675618 27.1309078 -44.67612997 27.03204271 -40.73535156 26.93554688 C-36.71335385 26.83503746 -32.69165738 26.72370693 -28.66992188 26.61328125 C-20.78019582 26.39825011 -12.89021355 26.19633207 -5 26 C-4.67 21.71 -4.34 17.42 -4 13 C-3.67 13 -3.34 13 -3 13 C-2.01 8.71 -1.02 4.42 0 0 Z " fill="#D7E6F3" transform="translate(87,69)"/>
<path d="M0 0 C0.33 0 0.66 0 1 0 C2.73239758 14.0679032 2.73239758 14.0679032 -1 19 C-6.2339905 22.489327 -12.89360748 21.41957242 -19 21 C-21.98489217 20.36303703 -23.42181823 19.71878785 -26 18 C-27.06412096 15.07838979 -27.10789517 12.33687138 -27.0625 9.25 C-27.05347656 8.45078125 -27.04445313 7.6515625 -27.03515625 6.828125 C-27.02355469 6.22484375 -27.01195313 5.6215625 -27 5 C-25.35 5 -23.7 5 -22 5 C-21.34 8.3 -20.68 11.6 -20 15 C-15.05 15 -10.1 15 -5 15 C-2.24843369 9.82097614 -2.24843369 9.82097614 -1.375 4.6875 C-1 1 -1 1 0 0 Z " fill="#415EAA" transform="translate(142,64)"/>
<path d="M0 0 C21.78 0 43.56 0 66 0 C66 1.98 66 3.96 66 6 C65 7 65 7 62.48802185 7.12025452 C61.37105423 7.11803391 60.25408661 7.11581329 59.10327148 7.11352539 C57.84203964 7.11344986 56.5808078 7.11337433 55.28135681 7.11329651 C53.89460206 7.1081891 52.50784771 7.10297309 51.12109375 7.09765625 C49.71004791 7.09579201 48.29900143 7.09436814 46.88795471 7.09336853 C43.16759465 7.08954379 39.4472734 7.0797139 35.72692871 7.06866455 C31.93319219 7.05844948 28.13944942 7.05387071 24.34570312 7.04882812 C16.89711769 7.03809158 9.44856428 7.0210157 2 7 C2 6.67 2 6.34 2 6 C22.13 6 42.26 6 63 6 C63 4.68 63 3.36 63 2 C42.21 2 21.42 2 0 2 C0 1.34 0 0.68 0 0 Z " fill="#9F93EC" transform="translate(113,97)"/>
<path d="M0 0 C8.25 0 16.5 0 25 0 C25 1.65 25 3.3 25 5 C18.4 5 11.8 5 5 5 C5 10.61 5 16.22 5 22 C4.67 22 4.34 22 4 22 C4 20.02 4 18.04 4 16 C3.01 16 2.02 16 1 16 C1 22.93 1 29.86 1 37 C0.67 37 0.34 37 0 37 C0 24.79 0 12.58 0 0 Z " fill="#48C6B9" transform="translate(152,35)"/>
<path d="M0 0 C0.33 0 0.66 0 1 0 C1 16.5 1 33 1 50 C9.25 50 17.5 50 26 50 C25.67 50.66 25.34 51.32 25 52 C24.34 52 23.68 52 23 52 C23 53.32 23 54.64 23 56 C20.31076993 56.13612526 17.62854081 56.23459559 14.9375 56.3125 C14.18533203 56.35439453 13.43316406 56.39628906 12.65820312 56.43945312 C11.91376953 56.45556641 11.16933594 56.47167969 10.40234375 56.48828125 C9.72679443 56.51446533 9.05124512 56.54064941 8.35522461 56.56762695 C4.49577303 55.63746992 1.57945608 54.05947229 -1 51 C-1.95661773 47.61526823 -1.81838045 44.38104757 -1.68359375 40.88671875 C-1.67368912 39.91716751 -1.66378448 38.94761627 -1.65357971 37.94868469 C-1.61447659 34.8600668 -1.52666298 31.77503843 -1.4375 28.6875 C-1.40238084 26.59054622 -1.37044289 24.49353657 -1.34179688 22.39648438 C-1.2647276 17.26294551 -1.14397292 12.13208069 -1 7 C-1.99 7.495 -1.99 7.495 -3 8 C-1.125 2.25 -1.125 2.25 0 0 Z " fill="#EEEBF6" transform="translate(151,35)"/>
<path d="M0 0 C0.66 0 1.32 0 2 0 C2 14.19 2 28.38 2 43 C2.66 43 3.32 43 4 43 C3.938125 41.2984375 3.938125 41.2984375 3.875 39.5625 C3.875 34.94113212 4.4500163 30.37248488 6 26 C6.66 25.67 7.32 25.34 8 25 C8.2773792 32.155998 7.53099774 38.64240894 6 45.625 C5.80921875 46.53378906 5.6184375 47.44257813 5.421875 48.37890625 C4.95680369 50.58799498 4.48278453 52.7947276 4 55 C2.68 55 1.36 55 0 55 C0 36.85 0 18.7 0 0 Z " fill="#7B55C9" transform="translate(99,123)"/>
<path d="M0 0 C0.66 0.66 1.32 1.32 2 2 C5.33452155 2.29237203 8.62636392 2.41495805 11.97070312 2.47851562 C16.46182055 2.64885403 19.42086247 3.22531624 23 6 C24.20272819 8.40545638 24.10071472 9.94996953 24.0625 12.625 C24.05347656 13.44226563 24.04445312 14.25953125 24.03515625 15.1015625 C24.02355469 15.72804688 24.01195312 16.35453125 24 17 C23.67 17 23.34 17 23 17 C22.67 15.35 22.34 13.7 22 12 C21.67 14.64 21.34 17.28 21 20 C20.67 20 20.34 20 20 20 C19.505 15.05 19.505 15.05 19 10 C17.83082031 10.03480469 16.66164062 10.06960937 15.45703125 10.10546875 C13.90886859 10.13361716 12.36069032 10.16091619 10.8125 10.1875 C10.04357422 10.21263672 9.27464844 10.23777344 8.48242188 10.26367188 C3.7802972 10.32421425 0.88165959 9.96375211 -3 7 C-2.34 6.67 -1.68 6.34 -1 6 C-0.34227572 2.97065509 -0.34227572 2.97065509 0 0 Z " fill="#3992C2" transform="translate(120,53)"/>
<path d="M0 0 C1.65 0.33 3.3 0.66 5 1 C5.33 1.99 5.66 2.98 6 4 C6.33 2.68 6.66 1.36 7 0 C9.31 0 11.62 0 14 0 C14 4.95 14 9.9 14 15 C13.67 15 13.34 15 13 15 C13 11.04 13 7.08 13 3 C12.01 3.33 11.02 3.66 10 4 C9.67 7.96 9.34 11.92 9 16 C5.7 16.66 2.4 17.32 -1 18 C-1.82011975 14.719521 -2.16221637 12.31721288 -2.1875 9 C-2.20167969 8.154375 -2.21585938 7.30875 -2.23046875 6.4375 C-1.98543096 3.84591384 -1.30584901 2.22975008 0 0 Z " fill="#E6E0F3" transform="translate(141,115)"/>
<path d="M0 0 C1.61148877 4.02872193 0.56618811 7.08452971 -1 11 C-3.5625 12.8125 -3.5625 12.8125 -6 14 C-6.33 14.66 -6.66 15.32 -7 16 C-7.804375 15.814375 -8.60875 15.62875 -9.4375 15.4375 C-10.7059375 15.2209375 -10.7059375 15.2209375 -12 15 C-12.33 15.33 -12.66 15.66 -13 16 C-14.99958364 16.04080783 -17.00045254 16.04254356 -19 16 C-19 15.01 -19 14.02 -19 13 C-20.96466413 11.93224776 -22.96855359 10.93446535 -25 10 C-25.99 10.495 -25.99 10.495 -27 11 C-27.33 9.35 -27.66 7.7 -28 6 C-27.42113037 6.16153564 -26.84226074 6.32307129 -26.24584961 6.48950195 C-22.71604135 7.29185319 -19.16377037 7.18442462 -15.5625 7.1875 C-14.81162109 7.19974609 -14.06074219 7.21199219 -13.28710938 7.22460938 C-9.12064599 7.23560268 -5.72628052 7.0978106 -2 5 C-0.63921965 2.47627099 -0.63921965 2.47627099 0 0 Z " fill="#EEEBF6" transform="translate(79,77)"/>
<path d="M0 0 C1.32 0 2.64 0 4 0 C4.19252858 5.48059631 4.37120891 10.96140398 4.53710938 16.44287109 C4.59548275 18.3072518 4.6576287 20.17151838 4.72363281 22.03564453 C4.81788994 24.71625998 4.8985405 27.39699395 4.9765625 30.078125 C5.00875885 30.91055725 5.0409552 31.7429895 5.0741272 32.60064697 C5.25881313 39.74669236 5.25881313 39.74669236 3 43 C-0.21044716 37.43522492 -0.14450101 31.46574605 -0.09765625 25.1953125 C-0.0962413 24.4713327 -0.09482635 23.74735291 -0.09336853 23.00143433 C-0.08781075 20.70924593 -0.07526633 18.41715843 -0.0625 16.125 C-0.05747953 14.56250142 -0.05291759 13.00000129 -0.04882812 11.4375 C-0.03785519 7.62496165 -0.0206201 3.81249788 0 0 Z " fill="#3190C0" transform="translate(50,35)"/>
<path d="M0 0 C0.33 1.32 0.66 2.64 1 4 C1.66 4 2.32 4 3 4 C2.8860791 4.72598389 2.7721582 5.45196777 2.65478516 6.19995117 C1.14740737 15.89291531 -0.24515088 25.60071512 -1.625 35.3125 C-1.85670465 36.93946255 -2.08847507 38.56641574 -2.3203125 40.19335938 C-2.88096455 44.12879899 -3.44073371 48.06436323 -4 52 C-4.66 51.01 -5.32 50.02 -6 49 C-6.66 49.99 -7.32 50.98 -8 52 C-6.1631556 35.15574604 -6.1631556 35.15574604 -4.5 27.515625 C-3.64333449 23.20552664 -3.10839767 18.84795295 -2.5078125 14.49609375 C-1.80229239 9.63885918 -0.92459959 4.81972124 0 0 Z " fill="#876CD7" transform="translate(112,100)"/>
<path d="M0 0 C0.33 0 0.66 0 1 0 C1.33 1.65 1.66 3.3 2 5 C2.66 5 3.32 5 4 5 C4.33 5.66 4.66 6.32 5 7 C11.6 7.33 18.2 7.66 25 8 C25 9.65 25 11.3 25 13 C16.75 13 8.5 13 0 13 C0 8.71 0 4.42 0 0 Z " fill="#5A76B4" transform="translate(152,72)"/>
<path d="M0 0 C0.33 0 0.66 0 1 0 C1.63285503 13.16922644 0.89696724 25.77879353 -1.375 38.75 C-1.59631592 40.01674561 -1.81763184 41.28349121 -2.0456543 42.58862305 C-3.71311868 51.56967803 -3.71311868 51.56967803 -6 55 C-6.25904043 45.0634009 -5.54029484 35.65431978 -4.125 25.8125 C-3.95097656 24.53697266 -3.77695313 23.26144531 -3.59765625 21.94726562 C-2.57806551 14.59488349 -1.40250814 7.28907831 0 0 Z " fill="#8779DF" transform="translate(96,17)"/>
<path d="M0 0 C0.33 0 0.66 0 1 0 C1 39.27 1 78.54 1 119 C0.67 119 0.34 119 0 119 C-0.33 84.02 -0.66 49.04 -1 13 C-1.66 14.32 -2.32 15.64 -3 17 C-3.28925539 11.50414765 -2.36902269 6.30621203 -1 1 C-0.67 0.67 -0.34 0.34 0 0 Z " fill="#F0F6F9" transform="translate(96,55)"/>
<path d="M0 0 C0.33 0 0.66 0 1 0 C1.41779497 22.74661509 1.41779497 22.74661509 -2 33 C-4.98243555 34.49121778 -8.02615752 34.13001472 -11.29541016 34.11352539 C-12.42238564 34.11374443 -12.42238564 34.11374443 -13.5721283 34.1139679 C-16.0611355 34.11326996 -18.55006833 34.10548314 -21.0390625 34.09765625 C-22.76256265 34.09579165 -24.48606334 34.09436794 -26.20956421 34.09336853 C-30.75025897 34.08954669 -35.29092185 34.07971922 -39.831604 34.06866455 C-44.46325245 34.05844329 -49.09490603 34.05386937 -53.7265625 34.04882812 C-62.81772236 34.03809667 -71.90885853 34.02102422 -81 34 C-81 33.67 -81 33.34 -81 33 C-55.92 33 -30.84 33 -5 33 C-3.70884647 25.25307885 -2.46494782 17.52421967 -1.375 9.75 C-1.2409375 8.80253906 -1.106875 7.85507813 -0.96875 6.87890625 C-0.64451756 4.58611971 -0.32160897 2.29315573 0 0 Z " fill="#C5D3EC" transform="translate(91,73)"/>
<path d="M0 0 C0 0.66 0 1.32 0 2 C-3.18824568 3.59412284 -6.62896662 3.10174735 -10.125 3.0625 C-10.87910156 3.05798828 -11.63320312 3.05347656 -12.41015625 3.04882812 C-14.27347127 3.03703499 -16.13674555 3.01909942 -18 3 C-17.505 5.97 -17.505 5.97 -17 9 C-16.01 9 -15.02 9 -14 9 C-14.33 10.32 -14.66 11.64 -15 13 C-15 12.01 -15 11.02 -15 10 C-16.65 10 -18.3 10 -20 10 C-20 7.69 -20 5.38 -20 3 C-33.86 3 -47.72 3 -62 3 C-62 2.67 -62 2.34 -62 2 C-50.02307951 0.66046518 -37.97381119 0.65960561 -25.9375 0.4375 C-23.75324844 0.39422021 -21.56900354 0.35060321 -19.38476562 0.30664062 C-15.4114133 0.22771555 -11.43804742 0.14990238 -7.46459961 0.07592773 C-6.67250595 0.06117905 -5.88041229 0.04643036 -5.0643158 0.03123474 C-3.37637163 0.0056948 -1.68813737 0 0 0 Z " fill="#E7F1F9" transform="translate(179,105)"/>
<path d="M0 0 C1.32 0 2.64 0 4 0 C4 13.2 4 26.4 4 40 C3.67 40 3.34 40 3 40 C3 32.08 3 24.16 3 16 C2.34 16 1.68 16 1 16 C0.67 23.26 0.34 30.52 0 38 C-0.33 38 -0.66 38 -1 38 C-1.02464928 32.74894558 -1.04283568 27.49792455 -1.05493164 22.24682617 C-1.05997218 20.45905979 -1.06680454 18.67129755 -1.07543945 16.88354492 C-1.0875173 14.31948832 -1.09323094 11.75548603 -1.09765625 9.19140625 C-1.10281754 8.3872377 -1.10797882 7.58306915 -1.11329651 6.75453186 C-1.11349215 4.83598285 -1.06201983 2.91754632 -1 1 C-0.67 0.67 -0.34 0.34 0 0 Z " fill="#5DBAC6" transform="translate(77,34)"/>
<path d="M0 0 C0.33 0 0.66 0 1 0 C1.66 2.97 2.32 5.94 3 9 C3.66 8.01 4.32 7.02 5 6 C5.474375 6.804375 5.94875 7.60875 6.4375 8.4375 C7.76900154 10.84753488 7.76900154 10.84753488 9 12 C11.69235776 12.23678716 14.36498156 12.42198025 17.0625 12.5625 C18.20041992 12.62727539 18.20041992 12.62727539 19.36132812 12.69335938 C21.24065438 12.79973633 23.12030244 12.90039934 25 13 C25 13.99 25 14.98 25 16 C21.15413405 17.28195532 17.50677403 17.18415545 13.5 17.1875 C12.34177734 17.20586914 12.34177734 17.20586914 11.16015625 17.22460938 C7.2517352 17.23476991 5.32358072 17.21572048 2 15 C-0.30474351 10.0266061 -0.21428007 5.3570018 0 0 Z " fill="#4C6EB1" transform="translate(50,68)"/>
<path d="M0 0 C3.63 0 7.26 0 11 0 C10.67 2.97 10.34 5.94 10 9 C5.05 9 0.1 9 -5 9 C-5.33 8.34 -5.66 7.68 -6 7 C-5.67 6.34 -5.34 5.68 -5 5 C-4.01 5 -3.02 5 -2 5 C-2 4.34 -2 3.68 -2 3 C-1.34 3 -0.68 3 0 3 C0 2.01 0 1.02 0 0 Z " fill="#E6E2F2" transform="translate(128,70)"/>
<path d="M0 0 C1.30710938 -0.03738281 2.61421875 -0.07476562 3.9609375 -0.11328125 C8.19103233 0.37827561 9.79457899 1.16225741 12.625 4.3125 C13.33203125 6.890625 13.33203125 6.890625 13.4375 9.5625 C13.48519531 10.45453125 13.53289062 11.3465625 13.58203125 12.265625 C13.59621094 12.94109375 13.61039063 13.6165625 13.625 14.3125 C11.975 14.6425 10.325 14.9725 8.625 15.3125 C8.50125 14.178125 8.3775 13.04375 8.25 11.875 C8.04375 10.699375 7.8375 9.52375 7.625 8.3125 C4.62186252 6.81093126 1.83432478 7.21968796 -1.5 7.25 C-2.78132813 7.25902344 -4.06265625 7.26804687 -5.3828125 7.27734375 C-6.37023437 7.28894531 -7.35765625 7.30054688 -8.375 7.3125 C-8.045 6.6525 -7.715 5.9925 -7.375 5.3125 C-4.65234375 4.8984375 -4.65234375 4.8984375 -1.3125 4.6875 C-0.20777344 4.61273438 0.89695313 4.53796875 2.03515625 4.4609375 C2.88980469 4.41195312 3.74445313 4.36296875 4.625 4.3125 C4.295 3.6525 3.965 2.9925 3.625 2.3125 C-2.11342251 2.10836639 -6.98039047 2.04108546 -12.375 4.3125 C-9.14020395 -0.53969407 -5.500678 0.10266491 0 0 Z " fill="#5CCFBE" transform="translate(130.375,33.6875)"/>
<path d="M0 0 C0.33 0 0.66 0 1 0 C1.33 1.65 1.66 3.3 2 5 C2.99 5 3.98 5 5 5 C5 11.6 5 18.2 5 25 C4.67 25 4.34 25 4 25 C4 23.35 4 21.7 4 20 C3.34 20 2.68 20 2 20 C1.67 29.9 1.34 39.8 1 50 C0.67 50 0.34 50 0 50 C0 33.5 0 17 0 0 Z " fill="#53AFC4" transform="translate(14,35)"/>
<path d="M0 0 C0.33 0 0.66 0 1 0 C1.07428762 5.46261638 1.12866714 10.92493716 1.16479492 16.38793945 C1.17985946 18.24541345 1.20031509 20.10285201 1.22631836 21.96020508 C1.26280459 24.63371539 1.2797497 27.30675444 1.29296875 29.98046875 C1.30845261 30.80773972 1.32393646 31.63501068 1.33988953 32.48735046 C1.34125317 37.18400547 0.9804943 40.14208587 -2 44 C-3 45 -3 45 -6.16015625 45.09765625 C-7.44792969 45.08605469 -8.73570313 45.07445312 -10.0625 45.0625 C-11.35285156 45.05347656 -12.64320312 45.04445312 -13.97265625 45.03515625 C-14.97167969 45.02355469 -15.97070312 45.01195312 -17 45 C-17.33 44.34 -17.66 43.68 -18 43 C-11.07 43.495 -11.07 43.495 -4 44 C-4.495 42.515 -4.495 42.515 -5 41 C-4.34 41 -3.68 41 -3 41 C-3.495 39.515 -3.495 39.515 -4 38 C-3.34 38 -2.68 38 -2 38 C-2.495 36.515 -2.495 36.515 -3 35 C-3.06740865 33.43881572 -3.08514456 31.8749748 -3.0625 30.3125 C-3.05347656 29.50425781 -3.04445313 28.69601563 -3.03515625 27.86328125 C-3.02355469 27.24839844 -3.01195313 26.63351563 -3 26 C-2.01 26.33 -1.02 26.66 0 27 C-0.03552979 26.35973877 -0.07105957 25.71947754 -0.10766602 25.05981445 C-0.26577928 22.14435365 -0.41422997 19.22847728 -0.5625 16.3125 C-0.61857422 15.30509766 -0.67464844 14.29769531 -0.73242188 13.25976562 C-0.78076172 12.28330078 -0.82910156 11.30683594 -0.87890625 10.30078125 C-0.9260376 9.40528564 -0.97316895 8.50979004 -1.02172852 7.5871582 C-0.99942695 4.93176823 -0.60392668 2.58041401 0 0 Z " fill="#DCDFED" transform="translate(75,35)"/>
<path d="M0 0 C0.66 0.66 1.32 1.32 2 2 C1.76594035 4.4186164 1.22559863 5.72060283 -0.30224609 7.61279297 C-3.24842471 10.02006747 -6.99739151 9.26268151 -10.625 9.125 C-13.41958545 9.04737263 -16.20358214 9.0058872 -19 9 C-20.99616554 10.99616554 -20.40983427 14.81701963 -20.5625 17.5625 C-20.60568359 18.27341797 -20.64886719 18.98433594 -20.69335938 19.71679688 C-20.79971777 21.47761912 -20.90038846 23.2387832 -21 25 C-21.66 24.67 -22.32 24.34 -23 24 C-22.67 17.73 -22.34 11.46 -22 5 C-13.75 4.625 -13.75 4.625 -11.17089844 4.52197266 C-5.78782027 4.29642054 -5.78782027 4.29642054 -1 2 C-0.67 1.34 -0.34 0.68 0 0 Z " fill="#DCDEED" transform="translate(41,61)"/>
<path d="M0 0 C1.94385388 1.81098285 2.96255557 3.22178986 3.09228516 5.91796875 C2.91296341 8.29490211 2.6350343 10.63820913 2.3125 13 C2.21018066 13.84344971 2.10786133 14.68689941 2.00244141 15.5559082 C1.19068359 22.0667529 0.2100246 28.55082635 -1 35 C-3.2007229 32.64534052 -3.9743716 31.40726874 -4.1796875 28.14453125 C-3.31137957 18.64880477 -1.8017179 9.35986786 0 0 Z " fill="#9281E8" transform="translate(89,65)"/>
<path d="M0 0 C0.33 0 0.66 0 1 0 C1 15.51 1 31.02 1 47 C0.67 47 0.34 47 0 47 C-0.33 38.42 -0.66 29.84 -1 21 C-1.99 26.28 -2.98 31.56 -4 37 C-4.33 37 -4.66 37 -5 37 C-5.40012496 29.15755071 -3.89442169 21.69084391 -2.5 14 C-2.25848897 12.63943382 -2.01759829 11.27875737 -1.77734375 9.91796875 C-1.1909744 6.61084564 -0.59835768 3.30497136 0 0 Z " fill="#D6E0F0" transform="translate(97,35)"/>
<path d="M0 0 C0 0.33 0 0.66 0 1 C-0.82827805 1.02283554 -1.65655609 1.04567108 -2.50993347 1.06919861 C-10.3227754 1.28535811 -18.13548839 1.50562695 -25.94808483 1.73049068 C-29.96443526 1.84594561 -33.98081742 1.9598216 -37.99731445 2.07006836 C-41.87479594 2.17655784 -45.75213801 2.28722204 -49.62941933 2.40075874 C-51.10731124 2.44330529 -52.58524696 2.48435769 -54.06322289 2.5238781 C-56.13627915 2.57956826 -58.2091148 2.64061059 -60.28198242 2.70288086 C-62.05069954 2.75284462 -62.05069954 2.75284462 -63.85514832 2.80381775 C-66.66866072 2.97933038 -69.25819859 3.36542934 -72 4 C-72 5.98 -72 7.96 -72 10 C-72.66 10 -73.32 10 -74 10 C-74.09765625 3.84765625 -74.09765625 3.84765625 -74 2 C-71.94445453 -0.05554547 -67.63692001 0.74167145 -64.8046875 0.68359375 C-63.95672607 0.66276733 -63.10876465 0.64194092 -62.23510742 0.6204834 C-59.44850024 0.55406331 -56.66179589 0.49542094 -53.875 0.4375 C-51.96761063 0.39461463 -50.06022131 0.35172725 -48.15283203 0.30883789 C-32.10031305 -0.0369173 -16.05565557 -0.11691885 0 0 Z " fill="#E7EFFA" transform="translate(82,95)"/>
<path d="M0 0 C0.33 0 0.66 0 1 0 C1 16.5 1 33 1 50 C9.25 50 17.5 50 26 50 C26 50.33 26 50.66 26 51 C17.09 51 8.18 51 -1 51 C-1 36.48 -1 21.96 -1 7 C-1.99 7.495 -1.99 7.495 -3 8 C-1.125 2.25 -1.125 2.25 0 0 Z " fill="#CFD1E7" transform="translate(151,35)"/>
<path d="M0 0 C0.33 0 0.66 0 1 0 C1.05391993 1.79133978 1.09275571 3.58313899 1.125 5.375 C1.14820313 6.37273437 1.17140625 7.37046875 1.1953125 8.3984375 C1 11 1 11 -1 13 C-0.67 10.36 -0.34 7.72 0 5 C-3.63 5 -7.26 5 -11 5 C-11 5.99 -11 6.98 -11 8 C-11.66 8 -12.32 8 -13 8 C-13 8.66 -13 9.32 -13 10 C-13.99 10 -14.98 10 -16 10 C-16 10.99 -16 11.98 -16 13 C-9.07 13.495 -9.07 13.495 -2 14 C-2 14.33 -2 14.66 -2 15 C-4.47923801 15.02685095 -6.9581884 15.04676547 -9.4375 15.0625 C-10.14455078 15.07087891 -10.85160156 15.07925781 -11.58007812 15.08789062 C-13.38693559 15.09653588 -15.19387603 15.05220011 -17 15 C-18 14 -18 14 -18.1875 11.75 C-17.97983488 8.70424493 -17.48365155 6.67057279 -16 4 C-12.78343037 2.80840716 -9.64859772 2.8970405 -6.25 2.9375 C-5.26515625 2.94652344 -4.2803125 2.95554687 -3.265625 2.96484375 C-2.14414063 2.98224609 -2.14414063 2.98224609 -1 3 C-0.67 2.01 -0.34 1.02 0 0 Z " fill="#D4D5E8" transform="translate(139,65)"/>
<path d="M0 0 C0.66 0 1.32 0 2 0 C1.19565825 8.8296842 0.06695296 17.61023792 -1.10180664 26.39770508 C-1.32719995 28.10298985 -1.5491583 29.80873187 -1.76782227 31.51489258 C-2.0863443 33.99926959 -2.41504251 36.48210913 -2.74609375 38.96484375 C-2.84200302 39.72731918 -2.93791229 40.48979462 -3.03672791 41.27537537 C-3.5247432 44.84884445 -3.96581624 46.94872436 -6 50 C-5.46457087 40.21697001 -4.56532088 30.55342677 -3.27050781 20.84350586 C-2.99512707 18.77591345 -2.72755876 16.70741045 -2.4609375 14.63867188 C-1.03159281 3.70357794 -1.03159281 3.70357794 0 0 Z " fill="#D1DAF0" transform="translate(94,18)"/>
<path d="M0 0 C1.32 0.33 2.64 0.66 4 1 C5.2062252 4.61867559 5.10816918 7.92506251 5.0625 11.6875 C5.05798828 12.38939453 5.05347656 13.09128906 5.04882812 13.81445312 C5.03706927 15.54300538 5.01913454 17.27151365 5 19 C3.68 19 2.36 19 1 19 C0.67 19.99 0.34 20.98 0 22 C-1.32 21.34 -2.64 20.68 -4 20 C-2.625 18.5 -2.625 18.5 -1 17 C-0.34 17 0.32 17 1 17 C0.67 11.39 0.34 5.78 0 0 Z " fill="#38A1C3" transform="translate(38,40)"/>
<path d="M0 0 C1.65 0 3.3 0 5 0 C5.66 3.3 6.32 6.6 7 10 C11.29 10.33 15.58 10.66 20 11 C20 11.33 20 11.66 20 12 C15.05 12 10.1 12 5 12 C4.67 12.99 4.34 13.98 4 15 C1 13 1 13 0.31640625 11.171875 C-0.02479789 8.82978241 -0.09729516 6.61607093 -0.0625 4.25 C-0.05347656 3.45078125 -0.04445313 2.6515625 -0.03515625 1.828125 C-0.02355469 1.22484375 -0.01195313 0.6215625 0 0 Z " fill="#4D72B4" transform="translate(115,69)"/>
<path d="M0 0 C1.65 0.33 3.3 0.66 5 1 C5 3.64 5 6.28 5 9 C3.35 9 1.7 9 0 9 C0.33 10.32 0.66 11.64 1 13 C2.32 13 3.64 13 5 13 C4.67 13.99 4.34 14.98 4 16 C2.68 16 1.36 16 0 16 C0 15.34 0 14.68 0 14 C-0.66 14 -1.32 14 -2 14 C-2.05437607 12.41705218 -2.09296271 10.83355744 -2.125 9.25 C-2.14820313 8.36828125 -2.17140625 7.4865625 -2.1953125 6.578125 C-1.99139502 3.8864142 -1.36551721 2.30095026 0 0 Z " fill="#CABEF2" transform="translate(141,115)"/>
<path d="M0 0 C1.98 0.495 1.98 0.495 4 1 C4.0582253 4.08325358 4.09367134 7.16636505 4.125 10.25 C4.14175781 11.12269531 4.15851563 11.99539062 4.17578125 12.89453125 C4.18222656 13.73886719 4.18867187 14.58320313 4.1953125 15.453125 C4.20578613 16.22817383 4.21625977 17.00322266 4.22705078 17.80175781 C3.97326556 20.25883539 3.22444152 21.87311542 2 24 C1.87625 22.906875 1.7525 21.81375 1.625 20.6875 C1.24535199 16.92618198 1.24535199 16.92618198 -1 14 C-0.9765625 10.64453125 -0.9765625 10.64453125 -0.625 6.8125 C-0.51414062 5.54019531 -0.40328125 4.26789062 -0.2890625 2.95703125 C-0.19367188 1.98121094 -0.09828125 1.00539063 0 0 Z " fill="#7866D7" transform="translate(97,13)"/>
<path d="M0 0 C0.33 0.66 0.66 1.32 1 2 C2.918125 1.7525 2.918125 1.7525 4.875 1.5 C9.19515171 1.0093834 13.4155246 0.97714049 17.7578125 1.03125 C20.26761428 0.99627018 22.57479521 0.64672128 25 0 C26.10844919 3.32534757 25.84454356 5.62182575 25 9 C24.67 9 24.34 9 24 9 C24 7.35 24 5.7 24 4 C15.75 4 7.5 4 -1 4 C-0.67 2.68 -0.34 1.36 0 0 Z " fill="#D0E5E5" transform="translate(153,31)"/>
<path d="M0 0 C0.33 0 0.66 0 1 0 C1.45705195 6.97004216 0.53569341 13.26257648 -0.875 20.0625 C-1.04870117 20.92012939 -1.22240234 21.77775879 -1.40136719 22.66137695 C-1.57571289 23.46534912 -1.75005859 24.26932129 -1.9296875 25.09765625 C-2.08679199 25.82476807 -2.24389648 26.55187988 -2.40576172 27.30102539 C-3 29 -3 29 -5 30 C-5.05389087 28.04196493 -5.09274217 26.08351091 -5.125 24.125 C-5.14820312 23.03445312 -5.17140625 21.94390625 -5.1953125 20.8203125 C-5 18 -5 18 -3 16 C-2.61071736 13.50489991 -2.61071736 13.50489991 -2.5 10.6875 C-2.28226686 6.69754022 -1.6492191 3.65089228 0 0 Z " fill="#E1EAF5" transform="translate(108,115)"/>
<path d="M0 0 C0.33 1.32 0.66 2.64 1 4 C1.66 4 2.32 4 3 4 C2.68798326 6.04174058 2.37536431 8.08338913 2.0625 10.125 C1.88847656 11.26195313 1.71445313 12.39890625 1.53515625 13.5703125 C1.04410734 16.71732669 0.52981281 19.85930783 0 23 C-0.99 23 -1.98 23 -3 23 C-3.48350422 15.10276444 -1.67664721 7.66467297 0 0 Z " fill="#917CE5" transform="translate(112,100)"/>
<path d="M0 0 C2.1640625 -0.29296875 2.1640625 -0.29296875 4.625 -0.1875 C5.44226563 -0.16042969 6.25953125 -0.13335937 7.1015625 -0.10546875 C8.04128906 -0.05326172 8.04128906 -0.05326172 9 0 C9 2 9 4 9 6 C5.04 6 1.08 6 -3 6 C-2 3 -2 3 0 0 Z " fill="#EFE9F4" transform="translate(62,73)"/>
<path d="M0 0 C0.33 0 0.66 0 1 0 C1.20356319 11.08288465 1.2063715 22.31209498 -2 33 C-3.98 33.495 -3.98 33.495 -6 34 C-5.81824219 33.30519531 -5.63648437 32.61039063 -5.44921875 31.89453125 C-2.8489941 21.37362227 -1.42024339 10.73326489 0 0 Z " fill="#E1EBF5" transform="translate(91,73)"/>
<path d="M0 0 C0.33 0 0.66 0 1 0 C1.07347656 1.28197266 1.07347656 1.28197266 1.1484375 2.58984375 C1.22320312 3.69457031 1.29796875 4.79929687 1.375 5.9375 C1.44460937 7.03964844 1.51421875 8.14179687 1.5859375 9.27734375 C1.72257812 10.17582031 1.85921875 11.07429688 2 12 C2.66 12.33 3.32 12.66 4 13 C2.69631653 14.68996005 1.35555293 16.35135455 0 18 C-0.68320313 18.87398437 -1.36640625 19.74796875 -2.0703125 20.6484375 C-6.12854957 23.90584912 -9.14433883 23.64276833 -14.1875 23.4375 C-15.41629883 23.42879883 -15.41629883 23.42879883 -16.66992188 23.41992188 C-22.70424107 23.29575893 -22.70424107 23.29575893 -25 21 C-24.16807129 21.0314209 -24.16807129 21.0314209 -23.31933594 21.06347656 C-20.79640977 21.14683548 -18.27377351 21.19871868 -15.75 21.25 C-14.44095703 21.30027344 -14.44095703 21.30027344 -13.10546875 21.3515625 C-7.93644989 21.48902675 -7.93644989 21.48902675 -3.453125 19.171875 C-0.79621787 15.20079875 -0.73750578 11.48401857 -0.4375 6.8125 C-0.35371094 5.54019531 -0.26992187 4.26789063 -0.18359375 2.95703125 C-0.09271484 1.49330078 -0.09271484 1.49330078 0 0 Z " fill="#BCC4DF" transform="translate(144,63)"/>
<path d="M0 0 C0.88945312 0.00966797 1.77890625 0.01933594 2.6953125 0.02929688 C3.61570313 0.05443359 4.53609375 0.07957031 5.484375 0.10546875 C6.42023438 0.11900391 7.35609375 0.13253906 8.3203125 0.14648438 C10.62558827 0.18176921 12.9296856 0.23106594 15.234375 0.29296875 C15.234375 1.28296875 15.234375 2.27296875 15.234375 3.29296875 C7.314375 3.29296875 -0.605625 3.29296875 -8.765625 3.29296875 C-4.265625 -0.08203125 -4.265625 -0.08203125 0 0 Z " fill="#3758A8" transform="translate(161.765625,80.70703125)"/>
<path d="M0 0 C0.33 0 0.66 0 1 0 C2.74656908 14.18298262 2.74656908 14.18298262 -1 19 C-1.99 19.33 -2.98 19.66 -4 20 C-3.67 19.01 -3.34 18.02 -3 17 C-3.66 16.34 -4.32 15.68 -5 15 C-4.525625 14.175 -4.05125 13.35 -3.5625 12.5 C-1.76719291 8.47851212 -1.44281749 5.35437199 -1 1 C-0.67 0.67 -0.34 0.34 0 0 Z " fill="#426AB2" transform="translate(142,64)"/>
<path d="M0 0 C0.99 0.495 0.99 0.495 2 1 C2 1.66 2 2.32 2 3 C8.93 3 15.86 3 23 3 C23.33 3.99 23.66 4.98 24 6 C22.75 7.5625 22.75 7.5625 21 9 C17.9582904 8.71483972 16.60954198 7.73969465 14 6 C10.80193335 5.5396236 10.80193335 5.5396236 7.3125 5.375 C6.13300781 5.30023438 4.95351562 5.22546875 3.73828125 5.1484375 C2.83464844 5.09945312 1.93101563 5.05046875 1 5 C0.67 3.35 0.34 1.7 0 0 Z " fill="#E6E6F2" transform="translate(117,82)"/>
<path d="M0 0 C5.94 0 11.88 0 18 0 C18 0.99 18 1.98 18 3 C12.06 3 6.12 3 0 3 C0 2.01 0 1.02 0 0 Z " fill="#3357A4" transform="translate(57,81)"/>
<path d="M0 0 C2.69652159 0.98872458 3.79023547 1.59212453 5.125 4.1875 C6.11804144 7.37941892 6.19830189 9.97726403 6.125 13.3125 C6.10695313 14.38113281 6.08890625 15.44976562 6.0703125 16.55078125 C6.04710938 17.35902344 6.02390625 18.16726562 6 19 C5.67 19 5.34 19 5 19 C4.67 14.38 4.34 9.76 4 5 C2.35 5.33 0.7 5.66 -1 6 C-1.33 5.67 -1.66 5.34 -2 5 C-4.85877909 4.76298761 -7.69883297 4.57780818 -10.5625 4.4375 C-11.36880859 4.39431641 -12.17511719 4.35113281 -13.00585938 4.30664062 C-15.00368805 4.20024738 -17.0018207 4.09959112 -19 4 C-19 3.67 -19 3.34 -19 3 C-12.73 2.67 -6.46 2.34 0 2 C0 1.34 0 0.68 0 0 Z " fill="#64CAC3" transform="translate(38,36)"/>
<path d="M0 0 C1.9451 2.91765 2.45276317 4.62537285 3 8 C3.99 5.36 4.98 2.72 6 0 C6.33 0 6.66 0 7 0 C7.2396943 5.63281599 6.38529821 10.54538831 5 16 C4.01 16 3.02 16 2 16 C0.61470179 10.54538831 -0.2396943 5.63281599 0 0 Z " fill="#B9ACEA" transform="translate(130,115)"/>
<path d="M0 0 C0.6875 1.6875 0.6875 1.6875 1 4 C-0.25 6.6875 -0.25 6.6875 -2 9 C-5.55290564 10.18430188 -8.80250456 10.18397858 -12.5 10.1875 C-13.51513672 10.20586914 -13.51513672 10.20586914 -14.55078125 10.22460938 C-18.26357044 10.23559396 -19.82983076 10.11344616 -23 8 C-21.35451172 7.92652344 -21.35451172 7.92652344 -19.67578125 7.8515625 C-18.22133075 7.77649409 -16.76690484 7.70094803 -15.3125 7.625 C-14.2306543 7.57859375 -14.2306543 7.57859375 -13.12695312 7.53125 C-9.07546005 7.30925038 -5.63530002 6.98289092 -2 5 C-0.63921965 2.47627099 -0.63921965 2.47627099 0 0 Z " fill="#BBC1E0" transform="translate(79,77)"/>
<path d="M0 0 C0.66 0.66 1.32 1.32 2 2 C4.73434962 2.3063859 7.38279821 2.5113336 10.125 2.625 C10.87910156 2.66367187 11.63320312 2.70234375 12.41015625 2.7421875 C14.27303184 2.83651031 16.13648255 2.91934662 18 3 C18 3.33 18 3.66 18 4 C12.39 4 6.78 4 1 4 C1 4.99 1 5.98 1 7 C4.04213267 8.52106634 7.28047572 8.37429338 10.625 8.5625 C11.33140625 8.60568359 12.0378125 8.64886719 12.765625 8.69335938 C14.51018537 8.79944751 16.25506697 8.90022889 18 9 C18 9.33 18 9.66 18 10 C15.43685501 10.08132187 12.87631582 10.14064175 10.3125 10.1875 C9.2306543 10.22520508 9.2306543 10.22520508 8.12695312 10.26367188 C3.52410662 10.32672457 0.69692767 9.77816458 -3 7 C-2.34 6.67 -1.68 6.34 -1 6 C-0.34227572 2.97065509 -0.34227572 2.97065509 0 0 Z " fill="#73ADCE" transform="translate(120,53)"/>
<path d="M0 0 C1.32 0.33 2.64 0.66 4 1 C4 6.61 4 12.22 4 18 C3.67 18 3.34 18 3 18 C3 16.02 3 14.04 3 12 C2.01 12 1.02 12 0 12 C0 8.04 0 4.08 0 0 Z " fill="#38B6BE" transform="translate(153,39)"/>
<path d="M0 0 C1.65 0.33 3.3 0.66 5 1 C4.67 1.66 4.34 2.32 4 3 C3.01 2.67 2.02 2.34 1 2 C1.20376178 3.90584196 1.20376178 3.90584196 2 6 C3.0209375 6.7115625 3.0209375 6.7115625 4.0625 7.4375 C6 9 6 9 6.375 11.5625 C6 14 6 14 4 16 C1.375 15.625 1.375 15.625 -1 15 C-1 14.34 -1 13.68 -1 13 C1.475 13.495 1.475 13.495 4 14 C4 12.35 4 10.7 4 9 C1.525 8.01 1.525 8.01 -1 7 C-0.67 4.69 -0.34 2.38 0 0 Z " fill="#AFA0E8" transform="translate(168,115)"/>
<path d="M0 0 C0.66 0 1.32 0 2 0 C2.05380578 2.79192205 2.09357669 5.5828141 2.125 8.375 C2.14175781 9.1690625 2.15851563 9.963125 2.17578125 10.78125 C2.19335473 12.85492015 2.10335168 14.92883241 2 17 C1.34 17.66 0.68 18.32 0 19 C-1.17245774 15.48262679 -1.13266285 12.6424868 -1.125 8.9375 C-1.12757812 7.68839844 -1.13015625 6.43929687 -1.1328125 5.15234375 C-1 2 -1 2 0 0 Z " fill="#2B99C2" transform="translate(78,50)"/>
<path d="M0 0 C0.33 0.99 0.66 1.98 1 3 C6.28 2.34 11.56 1.68 17 1 C17.33 2.32 17.66 3.64 18 5 C12.06 5 6.12 5 0 5 C0 3.35 0 1.7 0 0 Z " fill="#E5E3EE" transform="translate(158,51)"/>
<path d="M0 0 C1.485 0.99 1.485 0.99 3 2 C3.29296875 5.2578125 3.29296875 5.2578125 3.1875 9.125 C3.16042969 10.40632813 3.13335938 11.68765625 3.10546875 13.0078125 C3.07066406 13.99523437 3.03585938 14.98265625 3 16 C2.01 16 1.02 16 0 16 C0 10.72 0 5.44 0 0 Z " fill="#3964AF" transform="translate(15,70)"/>
<path d="M0 0 C0.66 0 1.32 0 2 0 C1.33742578 7.72422049 0.23535374 15.34800303 -1 23 C-1.66 23 -2.32 23 -3 23 C-2.33742578 15.27577951 -1.23535374 7.65199697 0 0 Z " fill="#DEEAF2" transform="translate(94,18)"/>
<path d="M0 0 C0.33 0 0.66 0 1 0 C1.26618595 6.95041086 0.6120509 13.23514355 -1 20 C-1.33 20 -1.66 20 -2 20 C-3.037006 13.28748816 -3.16396248 7.50670911 -1 1 C-0.67 0.67 -0.34 0.34 0 0 Z " fill="#8567CA" transform="translate(106,148)"/>
<path d="M0 0 C1.65 0.33 3.3 0.66 5 1 C4.67 1.99 4.34 2.98 4 4 C3.01 4 2.02 4 1 4 C0.67 4.99 0.34 5.98 0 7 C1.65 7 3.3 7 5 7 C5 7.33 5 7.66 5 8 C3.35 8 1.7 8 0 8 C0.66 9.65 1.32 11.3 2 13 C2.99 13 3.98 13 5 13 C5 13.99 5 14.98 5 16 C2.5625 15.625 2.5625 15.625 0 15 C-1.30459914 12.39080172 -1.1326594 10.41057385 -1.125 7.5 C-1.12757812 6.5203125 -1.13015625 5.540625 -1.1328125 4.53125 C-1 2 -1 2 0 0 Z " fill="#A491DE" transform="translate(122,115)"/>
<path d="M0 0 C0.33 1.32 0.66 2.64 1 4 C1.99 4 2.98 4 4 4 C4 4.99 4 5.98 4 7 C3.01 7 2.02 7 1 7 C1.33 10.3 1.66 13.6 2 17 C2.99 17.33 3.98 17.66 5 18 C5 18.66 5 19.32 5 20 C3.35 19.67 1.7 19.34 0 19 C0 15.04 0 11.08 0 7 C-0.66 7 -1.32 7 -2 7 C-2 6.01 -2 5.02 -2 4 C-1.34 4 -0.68 4 0 4 C0 2.68 0 1.36 0 0 Z " fill="#AB9CE4" transform="translate(160,111)"/>
<path d="M0 0 C1.98 0.66 3.96 1.32 6 2 C6 2.33 6 2.66 6 3 C4.35 3 2.7 3 1 3 C1 5.31 1 7.62 1 10 C0.34 9.01 -0.32 8.02 -1 7 C-1.99 7.33 -2.98 7.66 -4 8 C-7 4.375 -7 4.375 -7 1 C-6.401875 1.33 -5.80375 1.66 -5.1875 2 C-2.94613529 3.20787988 -2.94613529 3.20787988 0 3 C0 2.01 0 1.02 0 0 Z " fill="#E7EBF3" transform="translate(48,31)"/>
<path d="M0 0 C0 4.95 0 9.9 0 15 C-0.33 15 -0.66 15 -1 15 C-1 11.04 -1 7.08 -1 3 C-1.99 3.33 -2.98 3.66 -4 4 C-4.33 7.63 -4.66 11.26 -5 15 C-5.33 15 -5.66 15 -6 15 C-6 10.38 -6 5.76 -6 1 C-4 0 -4 0 0 0 Z " fill="#AE9EEA" transform="translate(155,115)"/>
<path d="M0 0 C0.66 0.33 1.32 0.66 2 1 C2 5.29 2 9.58 2 14 C1.01 14.33 0.02 14.66 -1 15 C-1.02703381 13.06257659 -1.04641125 11.12504521 -1.0625 9.1875 C-1.07410156 8.10855469 -1.08570313 7.02960938 -1.09765625 5.91796875 C-1 3 -1 3 0 0 Z " fill="#2C71BB" transform="translate(154,63)"/>
<path d="M0 0 C0.99 0.33 1.98 0.66 3 1 C3 4.3 3 7.6 3 11 C1.02 11.99 1.02 11.99 -1 13 C-2.51403812 8.15507803 -1.36602172 4.7408989 0 0 Z " fill="#3871B6" transform="translate(77,66)"/>
<path d="M0 0 C0.99 0 1.98 0 3 0 C1.5528914 4.58251058 1.5528914 4.58251058 -0.53125 6.15625 C-4.25467963 7.42881456 -7.84689427 7.20914656 -11.75 7.125 C-12.54277344 7.11597656 -13.33554687 7.10695313 -14.15234375 7.09765625 C-16.10169281 7.07417012 -18.05088575 7.03830137 -20 7 C-20 6.67 -20 6.34 -20 6 C-11.585 5.505 -11.585 5.505 -3 5 C-3 4.34 -3 3.68 -3 3 C-2.01 3 -1.02 3 0 3 C0 2.01 0 1.02 0 0 Z " fill="#5798CC" transform="translate(39,59)"/>
<path d="M0 0 C1.485 0.99 1.485 0.99 3 2 C2.34 9.59 1.68 17.18 1 25 C0.67 25 0.34 25 0 25 C-0.19676145 21.39627603 -0.38081639 17.7920131 -0.5625 14.1875 C-0.61857422 13.16333984 -0.67464844 12.13917969 -0.73242188 11.08398438 C-0.78076172 10.10107422 -0.82910156 9.11816406 -0.87890625 8.10546875 C-0.9260376 7.19949951 -0.97316895 6.29353027 -1.02172852 5.36010742 C-1 3 -1 3 0 0 Z " fill="#CDE1EB" transform="translate(115,32)"/>
<path d="M0 0 C1.32 0.33 2.64 0.66 4 1 C4 3.31 4 5.62 4 8 C3.34 6.68 2.68 5.36 2 4 C-3.94 3.67 -9.88 3.34 -16 3 C-16 2.34 -16 1.68 -16 1 C-10.72 1.33 -5.44 1.66 0 2 C0 1.34 0 0.68 0 0 Z " fill="#E4E4EE" transform="translate(174,76)"/>
<path d="M0 0 C0.33 0 0.66 0 1 0 C1.2361959 6.40353322 0.823321 11.84629161 -1 18 C-1.33 18 -1.66 18 -2 18 C-2.054138 15.75026553 -2.09285491 13.50015617 -2.125 11.25 C-2.14820312 9.99703125 -2.17140625 8.7440625 -2.1953125 7.453125 C-2.01537302 4.27179508 -1.68998582 2.63478104 0 0 Z " fill="#846FE7" transform="translate(92,54)"/>
<path d="M0 0 C1.32 0 2.64 0 4 0 C4 2.97 4 5.94 4 9 C3.34 8.34 2.68 7.68 2 7 C1.67 9.97 1.34 12.94 1 16 C0.67 16 0.34 16 0 16 C0 10.72 0 5.44 0 0 Z " fill="#36C4B6" transform="translate(50,35)"/>
<path d="M0 0 C0.33 0.99 0.66 1.98 1 3 C-0.65 3 -2.3 3 -4 3 C-3.67 4.32 -3.34 5.64 -3 7 C-1.68 7 -0.36 7 1 7 C0.67 7.99 0.34 8.98 0 10 C-1.32 10 -2.64 10 -4 10 C-4 9.34 -4 8.68 -4 8 C-4.66 8 -5.32 8 -6 8 C-6 5.69 -6 3.38 -6 1 C-4.02 0.67 -2.04 0.34 0 0 Z " fill="#AE9DE5" transform="translate(145,121)"/>
<path d="M0 0 C1.2065625 0.0309375 1.2065625 0.0309375 2.4375 0.0625 C3.0975 1.3825 3.7575 2.7025 4.4375 4.0625 C3.4475 4.5575 3.4475 4.5575 2.4375 5.0625 C1.4475 4.7325 0.4575 4.4025 -0.5625 4.0625 C-3.29539293 3.83452438 -6.01292204 3.64581813 -8.75 3.5 C-9.49958984 3.45681641 -10.24917969 3.41363281 -11.02148438 3.36914062 C-12.86828375 3.26327315 -14.71536834 3.1624024 -16.5625 3.0625 C-16.5625 2.7325 -16.5625 2.4025 -16.5625 2.0625 C-15.63566406 2.00191406 -14.70882812 1.94132812 -13.75390625 1.87890625 C-11.95759766 1.75322266 -11.95759766 1.75322266 -10.125 1.625 C-8.33255859 1.50318359 -8.33255859 1.50318359 -6.50390625 1.37890625 C-3.35540098 1.04022242 -3.05009115 0.07439247 0 0 Z " fill="#D6D9EC" transform="translate(138.5625,52.9375)"/>
<path d="M0 0 C0.33 0 0.66 0 1 0 C1.05449838 1.72880982 1.09301688 3.45812712 1.125 5.1875 C1.14820312 6.15042969 1.17140625 7.11335937 1.1953125 8.10546875 C0.9913544 11.12812778 0.26874632 13.26769985 -1 16 C-1.66 15.67 -2.32 15.34 -3 15 C-2.67 14.01 -2.34 13.02 -2 12 C-1.93259135 10.43881572 -1.91485544 8.8749748 -1.9375 7.3125 C-1.94652344 6.50425781 -1.95554687 5.69601563 -1.96484375 4.86328125 C-1.97644531 4.24839844 -1.98804687 3.63351563 -2 3 C-1.34 3 -0.68 3 0 3 C0 2.01 0 1.02 0 0 Z " fill="#7655BA" transform="translate(103,163)"/>
<path d="M0 0 C0.66 0 1.32 0 2 0 C4.22923777 4.32734391 3.92470553 7.28400182 3 12 C2.34 12 1.68 12 1 12 C-0.26237731 9.47524538 -0.09856404 7.68799534 -0.0625 4.875 C-0.05347656 3.96492188 -0.04445313 3.05484375 -0.03515625 2.1171875 C-0.02355469 1.41851562 -0.01195313 0.71984375 0 0 Z " fill="#2FA3C0" transform="translate(116,47)"/>
<path d="M0 0 C0.33 0 0.66 0 1 0 C1 6.27 1 12.54 1 19 C0.01 18.34 -0.98 17.68 -2 17 C-1.85786703 15.10388566 -1.71113093 13.20811606 -1.5625 11.3125 C-1.48128906 10.25675781 -1.40007812 9.20101562 -1.31640625 8.11328125 C-1.03548319 5.34913703 -0.59843148 2.71054259 0 0 Z " fill="#C8DBEC" transform="translate(97,35)"/>
<path d="M0 0 C0.33 0.515625 0.66 1.03125 1 1.5625 C0 2.5625 0 2.5625 -2.72265625 2.66015625 C-4.37587891 2.64275391 -4.37587891 2.64275391 -6.0625 2.625 C-7.16722656 2.61597656 -8.27195312 2.60695313 -9.41015625 2.59765625 C-10.69212891 2.58025391 -10.69212891 2.58025391 -12 2.5625 C-10 -0.4375 -10 -0.4375 -8.16015625 -1.0546875 C-2.44472101 -1.75714323 -2.44472101 -1.75714323 0 0 Z " fill="#31CAB1" transform="translate(135,36.4375)"/>
<path d="M0 0 C1.32 0.33 2.64 0.66 4 1 C5.1577506 4.47325181 5.06866652 7.36067448 5 11 C4.34 9.68 3.68 8.36 3 7 C2.67 8.65 2.34 10.3 2 12 C1.67 12 1.34 12 1 12 C0.67 8.04 0.34 4.08 0 0 Z " fill="#36B9B9" transform="translate(38,40)"/>
<path d="M0 0 C1.63001953 0.01353516 1.63001953 0.01353516 3.29296875 0.02734375 C4.12441406 0.03894531 4.95585937 0.05054688 5.8125 0.0625 C5.8125 0.3925 5.8125 0.7225 5.8125 1.0625 C5.05324219 1.09988281 4.29398438 1.13726562 3.51171875 1.17578125 C2.51785156 1.24152344 1.52398437 1.30726562 0.5 1.375 C-0.48613281 1.43300781 -1.47226563 1.49101563 -2.48828125 1.55078125 C-5.49431647 2.12066636 -6.46424507 2.56831524 -8.1875 5.0625 C-8.75767808 7.10350238 -8.75767808 7.10350238 -8.875 9.25 C-8.978125 10.508125 -9.08125 11.76625 -9.1875 13.0625 C-9.5175 13.0625 -9.8475 13.0625 -10.1875 13.0625 C-10.21448189 11.43759046 -10.23388757 9.81255367 -10.25 8.1875 C-10.26160156 7.28257813 -10.27320312 6.37765625 -10.28515625 5.4453125 C-10.1875 3.0625 -10.1875 3.0625 -9.1875 1.0625 C-5.90230525 -0.03256492 -3.45086585 -0.03710608 0 0 Z " fill="#CBDBE9" transform="translate(130.1875,39.9375)"/>
<path d="M0 0 C1.33333333 0 2.66666667 0 4 0 C4 2.31 4 4.62 4 7 C2.02 7 0.04 7 -2 7 C-2.125 4.625 -2.125 4.625 -2 2 C-1.34 1.34 -0.68 0.68 0 0 Z " fill="#D5CBF1" transform="translate(124,117)"/>
<path d="M0 0 C0.33 0 0.66 0 1 0 C0.67 5.94 0.34 11.88 0 18 C-1.32 18.33 -2.64 18.66 -4 19 C-3.79503906 18.13117188 -3.59007813 17.26234375 -3.37890625 16.3671875 C-3.10949219 15.21476562 -2.84007813 14.06234375 -2.5625 12.875 C-2.29566406 11.73804687 -2.02882813 10.60109375 -1.75390625 9.4296875 C-1.0649313 6.29538696 -0.49618806 3.16982274 0 0 Z " fill="#D8E3F3" transform="translate(89,88)"/>
<path d="M0 0 C0.66 0 1.32 0 2 0 C2.66 1.98 3.32 3.96 4 6 C4.33 4.68 4.66 3.36 5 2 C5 3.98 5 5.96 5 8 C3.35 8.33 1.7 8.66 0 9 C0 6.03 0 3.06 0 0 Z " fill="#56C0C2" transform="translate(139,40)"/>
<path d="M0 0 C0.33 0 0.66 0 1 0 C0.98839844 0.71027344 0.97679688 1.42054688 0.96484375 2.15234375 C0.95582031 3.07144531 0.94679688 3.99054688 0.9375 4.9375 C0.92589844 5.85402344 0.91429688 6.77054688 0.90234375 7.71484375 C0.74050951 9.96593327 0.74050951 9.96593327 2 11 C2.04080783 12.99958364 2.04254356 15.00045254 2 17 C1.34 16.01 0.68 15.02 0 14 C-0.66 14.99 -1.32 15.98 -2 17 C-1.34 11.39 -0.68 5.78 0 0 Z " fill="#9F93DB" transform="translate(106,135)"/>
<path d="M0 0 C0.66 0 1.32 0 2 0 C1.34 5.28 0.68 10.56 0 16 C-0.33 16 -0.66 16 -1 16 C-1.02685095 13.52076199 -1.04676547 11.0418116 -1.0625 8.5625 C-1.07506836 7.50192383 -1.07506836 7.50192383 -1.08789062 6.41992188 C-1.09653588 4.61306441 -1.05220011 2.80612397 -1 1 C-0.67 0.67 -0.34 0.34 0 0 Z " fill="#C1D4E8" transform="translate(103,146)"/>
<path d="M0 0 C1.98 0 3.96 0 6 0 C6 1.98 6 3.96 6 6 C3.5625 5.25 3.5625 5.25 1 4 C0.1875 1.875 0.1875 1.875 0 0 Z " fill="#EBE9F4" transform="translate(122,124)"/>
<path d="M0 0 C2.31 0.33 4.62 0.66 7 1 C7.33 3.97 7.66 6.94 8 10 C7.01 10 6.02 10 5 10 C4.87625 8.3603125 4.87625 8.3603125 4.75 6.6875 C4.36310791 2.96723336 4.36310791 2.96723336 1.9375 1.0625 C1.298125 0.711875 0.65875 0.36125 0 0 Z " fill="#F3F1F6" transform="translate(123,114)"/>
<path d="M0 0 C1.65 0 3.3 0 5 0 C5 2.31 5 4.62 5 7 C4.01 6.34 3.02 5.68 2 5 C2.33 3.68 2.66 2.36 3 1 C2.34 1 1.68 1 1 1 C1 3.64 1 6.28 1 9 C0.67 9 0.34 9 0 9 C0 6.03 0 3.06 0 0 Z " fill="#618BBE" transform="translate(115,69)"/>
<path d="M0 0 C0.66 0.33 1.32 0.66 2 1 C1.67 3.97 1.34 6.94 1 10 C-1.76223278 7.23776722 -1.57856291 4.79293383 -2 1 C-1.34 0.67 -0.68 0.34 0 0 Z " fill="#F4F1F6" transform="translate(133,115)"/>
<path d="M0 0 C0.33 0.66 0.66 1.32 1 2 C1.66 2 2.32 2 3 2 C3 2.66 3 3.32 3 4 C-0.465 5.485 -0.465 5.485 -4 7 C-4.33 6.01 -4.66 5.02 -5 4 C-4.67 3.34 -4.34 2.68 -4 2 C-2.68 2 -1.36 2 0 2 C0 1.34 0 0.68 0 0 Z " fill="#E7EBF2" transform="translate(122,30)"/>
<path d="M0 0 C0.66 0 1.32 0 2 0 C2.66 2.64 3.32 5.28 4 8 C3.01 8.33 2.02 8.66 1 9 C-0.61949011 6.42786866 -1.04408751 5.32330841 -0.625 2.25 C-0.41875 1.5075 -0.2125 0.765 0 0 Z " fill="#DFE1F0" transform="translate(48,73)"/>
<path d="M0 0 C0.99 0 1.98 0 3 0 C2.88637738 1.4800841 2.75877092 2.95910074 2.625 4.4375 C2.52058594 5.67306641 2.52058594 5.67306641 2.4140625 6.93359375 C2.27742187 7.61550781 2.14078125 8.29742187 2 9 C1.01 9.495 1.01 9.495 0 10 C0 6.7 0 3.4 0 0 Z " fill="#FDFCFA" transform="translate(156,119)"/>
<path d="M0 0 C0.144375 0.61875 0.28875 1.2375 0.4375 1.875 C0.93152225 4.03258322 0.93152225 4.03258322 2 6 C2.33 6.99 2.66 7.98 3 9 C1.35 9.33 -0.3 9.66 -2 10 C-1.54177532 6.53058454 -1.10868317 3.32604951 0 0 Z " fill="#ECE6F5" transform="translate(115,57)"/>
<path d="M0 0 C1.485 0.99 1.485 0.99 3 2 C2.67 4.97 2.34 7.94 2 11 C1.01 10.34 0.02 9.68 -1 9 C-0.67 6.03 -0.34 3.06 0 0 Z " fill="#F4F1F5" transform="translate(137,115)"/>
<path d="M0 0 C0.99 1.485 0.99 1.485 2 3 C2.66 3 3.32 3 4 3 C4 5.64 4 8.28 4 11 C3.34 10.34 2.68 9.68 2 9 C2 8.01 2 7.02 2 6 C1.34 6 0.68 6 0 6 C0 4.02 0 2.04 0 0 Z " fill="#42B7BF" transform="translate(116,41)"/>
<path d="M0 0 C0.33 0 0.66 0 1 0 C1 2.64 1 5.28 1 8 C0.34 8 -0.32 8 -1 8 C-1.33 8.66 -1.66 9.32 -2 10 C-2.25 3.375 -2.25 3.375 0 0 Z " fill="#2CB1BB" transform="translate(79,42)"/>
<path d="M0 0 C0.66 0 1.32 0 2 0 C1.125 4.75 1.125 4.75 0 7 C-0.99 6.67 -1.98 6.34 -3 6 C-3 4.68 -3 3.36 -3 2 C-2.01 1.67 -1.02 1.34 0 1 C0 0.67 0 0.34 0 0 Z " fill="#EAE7F6" transform="translate(172,115)"/>
<path d="M0 0 C0.33 0 0.66 0 1 0 C1 3.96 1 7.92 1 12 C0.67 12 0.34 12 0 12 C-0.33 10.35 -0.66 8.7 -1 7 C-1.99 7.495 -1.99 7.495 -3 8 C-1.125 2.25 -1.125 2.25 0 0 Z " fill="#E2E5EF" transform="translate(151,35)"/>
<path d="M0 0 C1.65 0 3.3 0 5 0 C5 0.99 5 1.98 5 3 C4.34 3 3.68 3 3 3 C3 3.66 3 4.32 3 5 C2.01 4.67 1.02 4.34 0 4 C0 2.68 0 1.36 0 0 Z " fill="#F1EBF4" transform="translate(141,124)"/>
<path d="M0 0 C0.33 0.66 0.66 1.32 1 2 C0.01 2 -0.98 2 -2 2 C-2.33 5.3 -2.66 8.6 -3 12 C-3.33 12 -3.66 12 -4 12 C-4.19491452 10.54263913 -4.38069358 9.08405407 -4.5625 7.625 C-4.66691406 6.81289062 -4.77132812 6.00078125 -4.87890625 5.1640625 C-5 3 -5 3 -4 1 C-1.9375 0.375 -1.9375 0.375 0 0 Z " fill="#E1E1F0" transform="translate(118,65)"/>
<path d="M0 0 C0.33 1.32 0.66 2.64 1 4 C1.66 4 2.32 4 3 4 C3 5.98 3 7.96 3 10 C2.34 9.01 1.68 8.02 1 7 C0.01 7.495 0.01 7.495 -1 8 C-0.67 5.36 -0.34 2.72 0 0 Z " fill="#9E90EE" transform="translate(87,78)"/>
<path d="M0 0 C-3.1749094 1.9078584 -5.10585211 2.1609041 -8.75 1.625 C-9.54921875 1.51414062 -10.3484375 1.40328125 -11.171875 1.2890625 C-11.77515625 1.19367188 -12.3784375 1.09828125 -13 1 C-13 0.67 -13 0.34 -13 0 C-4.57142857 -1.28571429 -4.57142857 -1.28571429 0 0 Z " fill="#345DA1" transform="translate(140,81)"/>
<path d="M0 0 C0.33 0 0.66 0 1 0 C1 3.63 1 7.26 1 11 C-2 7 -2 7 -2 3 C-1.34 3 -0.68 3 0 3 C0 2.01 0 1.02 0 0 Z " fill="#7C62BF" transform="translate(103,163)"/>
<path d="M0 0 C0.99 0 1.98 0 3 0 C3.125 2.875 3.125 2.875 3 6 C2.34 6.66 1.68 7.32 1 8 C0.67 5.36 0.34 2.72 0 0 Z " fill="#2B82C0" transform="translate(77,61)"/>
<path d="M0 0 C0.66 0.66 1.32 1.32 2 2 C1.625 4.125 1.625 4.125 1 6 C-1.97 5.505 -1.97 5.505 -5 5 C-3.35 3.35 -1.7 1.7 0 0 Z " fill="#D3DBEF" transform="translate(41,61)"/>
<path d="M0 0 C1.65 0.33 3.3 0.66 5 1 C4.67 1.99 4.34 2.98 4 4 C2.33333333 4 0.66666667 4 -1 4 C-0.67 2.68 -0.34 1.36 0 0 Z " fill="#B7A9F3" transform="translate(122,115)"/>
<path d="M0 0 C0.33 0 0.66 0 1 0 C1.33 2.64 1.66 5.28 2 8 C1.01 8 0.02 8 -1 8 C-1.04241723 5.66705225 -1.04092937 3.33297433 -1 1 C-0.67 0.67 -0.34 0.34 0 0 Z " fill="#2E77BC" transform="translate(142,64)"/>
<path d="M0 0 C0.66 0 1.32 0 2 0 C2 2.31 2 4.62 2 7 C1.01 6.34 0.02 5.68 -1 5 C-0.67 3.35 -0.34 1.7 0 0 Z " fill="#2C78BC" transform="translate(16,65)"/>
</svg>
